<svg xmlns="http://www.w3.org/2000/svg" viewBox="131.106 1100.8703 1174 166.6">
  <path d="M139.7 56.2c23.3 0 40.2 7.9 55.9 21.5 2.1 1.9 2.1 4.6.2 6.5l-10.2 10.4c-1.6 2.1-3.7 2.1-5.8 0-10.9-9.5-25.7-15.5-40-15.5-33.1 0-58 27.7-58 60.1 0 32.4 25.2 59.9 58.3 59.9 16.9 0 28.7-6.7 39.8-15.3 2.1-1.6 4.2-1.4 5.6-.2l10.6 10.4c1.9 1.6 1.4 4.6-.2 6.2-15.8 15.3-35.7 22.5-56.2 22.5-46.3 0-83.5-36.8-83.5-83s37.2-83.5 83.5-83.5zm85.5 4.2c0-2.3 2.1-4.2 4.4-4.2h5.8l100.3 116.1h.2V62.9c0-2.3 1.9-4.4 4.4-4.4h14.8c2.3 0 4.4 2.1 4.4 4.4v155.6c0 2.3-2.1 4.2-4.4 4.2h-6L248.8 103.4h-.2V216c0 2.3-1.9 4.4-4.4 4.4h-14.6c-2.3 0-4.4-2.1-4.4-4.4zm301.4-4.2c22.2 0 40.5 8.1 56.2 21.5 1.8 1.9 2.1 4.6.2 6.5-3.5 3.7-6.9 7.2-10.4 10.9-1.9 2.1-3.7 1.9-6-.2-10.9-9.5-25.2-15.7-39.3-15.7-32.8 0-58 27.7-58 60.1 0 32.1 25.2 59.9 58 59.9 19.2 0 32.4-6.9 34.7-7.9v-25.9h-22.7c-2.6 0-4.4-1.8-4.4-4.2v-13.4c0-2.6 1.9-4.4 4.4-4.4h42.1c2.3 0 4.2 2.1 4.2 4.4 0 18.5.2 37.4.2 55.9 0 1.2-.9 3-1.8 3.7 0 0-23.8 15.3-57.3 15.3-46 0-83.2-36.8-83.2-83s37.1-83.5 83.1-83.5zm95 6.7c0-2.3 1.9-4.4 4.4-4.4h62.9c27.7 0 50.4 22 50.4 49.5 0 21.3-14.1 38.8-34.2 46.9l31.7 58.7c1.6 3 0 6.7-3.9 6.7h-18c-1.9 0-3.2-1.2-3.7-2.1l-30.7-61.3h-34.9v59c0 2.3-2.1 4.4-4.4 4.4h-15c-2.5 0-4.4-2.1-4.4-4.4v-153zm65.4 74.2c15 0 28.2-12.7 28.2-28.7 0-15-13.2-27.5-28.2-27.5h-41.2v56.2zm268.1-74.2c0-2.3 2.1-4.4 4.4-4.4H975c2.5 0 4.4 2.1 4.4 4.4v95.5c0 23.1 14.8 41.2 38.4 41.2 23.8 0 38.8-17.8 38.8-40.7V63c0-2.3 1.9-4.4 4.4-4.4h15.5c2.3 0 4.4 2.1 4.4 4.4v97.1c0 35.1-26.6 62.7-63.1 62.7-36.3 0-62.7-27.5-62.7-62.7zm166.2 0c0-2.3 1.9-4.4 4.4-4.4h52.7c28.4 0 51.8 23.1 51.8 51.1 0 28.7-23.4 52-51.6 52h-33.5v54.3c0 2.3-2.1 4.4-4.4 4.4h-15c-2.5 0-4.4-2.1-4.4-4.4zM1177 139c16 0 29.4-12.9 29.4-29.6 0-15.7-13.4-27.7-29.4-27.7h-31.9V139Z" transform="translate(74.90600586 1044.67028809)"/>
  <g transform="translate(74.90600586 1044.67028809)">
    <circle cx="891.29999" cy="189.8" r="12" class="st1"/>
    <path d="M842.6 222.6c-38.1.8-73.1-25-82.5-63.5-10.8-44.6 16.6-89.6 61.2-100.4 21.6-5.2 43.9-1.8 62.9 9.8 19 11.6 32.3 29.8 37.6 51.4 3.1 12.9 3.1 26.4 0 39.2-1.6 6.4-8 10.4-14.5 8.8-6.4-1.6-10.4-8-8.8-14.5 2.2-9.2 2.2-18.6 0-27.9-3.7-15.4-13.2-28.3-26.7-36.6-13.5-8.2-29.4-10.7-44.8-7-31.7 7.7-51.2 39.8-43.5 71.5 7.7 31.7 39.8 51.2 71.5 43.5 6.4-1.6 12.9 2.4 14.5 8.8 1.6 6.4-2.4 12.9-8.8 14.5-6.1 1.5-12.2 2.3-18.1 2.4z"/>
  </g>
</svg>