<svg xmlns="http://www.w3.org/2000/svg" viewBox="0 0 612 259.4">
  <path d="M202.6 258.7 181.1 226h-21.5v32.8h-28.1V145.6h49.4c28.1 0 46.9 15.3 46.9 39.8 0 14.8-7.2 26.8-19.1 33.8l26.6 39.6h-32.7zm-43-58h20.8c10.8 0 19.3-6 19.3-15.3 0-9.2-8.5-15-19.3-15h-20.8v30.3zm117.6-30.6v20.6h50.2v24h-50.2v19.6h57.4v24.4h-85.5V145.6h85.5v24.5zm182.7 31.8c0 33.6-25.5 56.9-61 56.9h-45.4V145.6h45.4c35.5 0 61 23.1 61 56.3m-28.5 0c0-17.5-14.1-30.9-32.6-30.9h-17.3v62.5h17.3c18.5-.1 32.6-13.7 32.6-31.6m44-56.3h28.1v113.1h-28.1zm135.7 25.2h-32.4v87.9h-28v-87.9h-32.4v-25.2h92.8zM85.7 218c-4.3 10.4-13.4 16.6-26 16.6-18.5 0-31.3-13.6-31.3-32.4 0-18.8 12.8-32.4 31.3-32.4 12.6 0 21.7 6.2 26 16.6h29.8c-5.8-25.8-27.1-42.9-55.6-42.9-34.1 0-59.9 24.6-59.9 58.7s25.8 58.7 59.9 58.7c28.6 0 49.8-17 55.6-42.9H85.7zM108.8 6.2v113H80.9V76.8H34.8v42.4H6.7V6.2h28.1v45.4h46.1V6.2zm323.2 113h-28.1V62.5l-25.2 38.8v.2h-15.6v-.2l-25.3-39.1.2 57h-28.1V6.1h21l40 60.4L411 6.1h21zm51.4-88.6v20.6h50.2v24h-50.2v19.6h57.4v24.4h-85.5V6.2h85.5v24.4zm-274-29.4c-44.7 0-81 34.5-81 77.1 0 15 4.5 29 12.3 40.9h39.1c-11.9-9-19.6-23.2-19.6-39.2 0-27.2 22-49.2 49.2-49.2 27.2 0 49.2 22 49.2 49.2 0 16-7.7 30.2-19.5 39.2H278c7.8-11.9 12.3-25.9 12.3-40.9 0-42.6-36.2-77.1-80.9-77.1"/>
  <path d="M182.8 91c3.8 11.3 14.2 19.4 26.6 19.4 12.3 0 22.8-8.1 26.6-19.4h-53.2z"/>
</svg>