<svg xmlns="http://www.w3.org/2000/svg" viewBox="0 0 200 138">
  <g>
    <path d="M43.657 85.07c14.714 0 26.642 11.849 26.642 26.465S58.37 138 43.657 138c-11.67 0-21.588-7.453-25.192-17.831l11.168-4.889c1.66 6.149 7.31 10.677 14.024 10.677 8.017 0 14.517-6.458 14.517-14.422s-6.5-14.421-14.517-14.421a14.53 14.53 0 0 0-12.603 7.257l-9.718-7.086-.094-.061A26.663 26.663 0 0 1 43.657 85.07Z"/>
    <path d="M45.93 29.174c-14.483 0-26.225 11.663-26.225 26.05 0 8.436 4.037 15.934 10.296 20.695L19.985 99.631l11.07 4.74 9.95-23.556c1.596.302 3.242.46 4.926.46 14.483 0 26.225-11.663 26.225-26.05 0-14.388-11.742-26.051-26.226-26.051Zm0 40.247c-7.892 0-14.29-6.356-14.29-14.196s6.398-14.196 14.29-14.196c7.893 0 14.29 6.356 14.29 14.196S53.825 69.42 45.93 69.42ZM89.872 0H78.064v80.204h11.808zM13.827 30.526H2.02v49.678h11.807zm-5.904-8.219c4.375 0 7.923-3.524 7.923-7.87 0-4.347-3.548-7.87-7.923-7.87C3.547 6.566 0 10.09 0 14.436s3.547 7.87 7.923 7.87Zm125.316 8.219v27.35c0 9.984-7.281 12.37-13.368 12.37-6.087 0-10.163-2.552-10.163-12.37v-27.35H97.9V61.26c0 9.712 4.767 16.484 11.492 18.944a17.113 17.113 0 0 0 5.9 1.025c7.909 0 14.658-3.346 17.947-9.978v8.953h11.808V30.526h-11.808Zm54.954 0v27.35c0 9.984-7.282 12.37-13.369 12.37-6.086 0-10.163-2.552-10.163-12.37v-27.35h-11.807V61.26c0 9.712 4.767 16.484 11.491 18.944a17.113 17.113 0 0 0 5.9 1.025c7.909 0 14.658-3.346 17.948-9.978v8.953H200V30.526h-11.807Z"/>
  </g>
</svg>