<svg xmlns="http://www.w3.org/2000/svg" viewBox="-1337.96 1126.703 3880.145 718.709">
  <path d="M-899.533 1335.019h150.56v495.244h-150.56Zm160.987-136.359c0 25.893-6.014 44.513-18 55.873-12 11.37-34.4 17.044-67.227 17.044-33.467 0-56.187-5.674-68.173-17.044-12-11.36-18-29.98-18-55.873 0-24.613 6-42.755 18-54.433 11.986-11.679 34.706-17.524 68.173-17.524 32.827 0 55.227 5.845 67.227 17.524 11.986 11.678 18 29.82 18 54.433M-551.306 1335.019l98.48 343.736 101.32-343.736h155.293L-367.6 1830.263h-175.186l-173.28-495.244h164.76M44.64 1430.665c-17.053 0-30.787 1.427-41.187 4.26-10.426 2.84-18.64 7.887-24.626 15.148-6 7.26-10.094 17.204-12.307 29.831-2.213 12.627-3.32 29.044-3.32 49.239h163.813c0-20.195-1.106-36.612-3.306-49.239-2.214-12.627-6.467-22.57-12.787-29.83-6.307-7.262-14.68-12.309-25.093-15.15-10.414-2.832-24.147-4.259-41.187-4.259zm-81.44 202.642c.627 16.417 2.373 29.67 5.213 39.762 2.827 10.104 7.88 18.312 15.147 24.626s16.88 10.572 28.88 12.786c11.987 2.215 27.147 3.311 45.453 3.311h83.814c29.973 0 63.6-.308 100.84-.948l-21.774 117.419c-31.586 1.254-60.933 1.894-88.08 1.894h-89c-44.826 0-82.08-4.566-111.746-13.722-29.667-9.155-53.334-23.038-71.014-41.67-17.666-18.62-30.133-41.978-37.4-70.074-7.253-28.084-10.893-61.078-10.893-98.958v-52.081c0-39.763 3.947-74.321 11.827-103.684 7.893-29.352 21.146-53.817 39.786-73.385 18.614-19.568 42.92-34.248 72.907-44.032 29.987-9.784 67.08-14.682 111.267-14.682 79.533 0 136.36 16.576 170.453 49.718 34.08 33.142 51.133 79.378 51.133 138.721v19.887c0 20.836-1.266 37.88-3.8 51.134-2.533 13.267-7.106 23.998-13.733 32.195-6.627 8.208-15.307 13.893-26.04 17.044-10.733 3.164-23.987 4.739-39.76 4.739H-36.8M655.173 1456.227c22.08 10.102 39.76 22.89 53.014 38.346 13.253 15.471 22.72 33.782 28.4 54.926 5.693 21.154 8.533 45.62 8.533 73.385v14.201c0 34.09-4.413 63.292-13.253 87.598-8.84 24.306-23.68 44.501-44.507 60.6-20.827 16.096-48.293 27.934-82.373 35.514-34.094 7.582-76.08 11.36-125.947 11.36h-67.36c-19.267 0-4.28-.16-28.56-.468-24.307-.332-51.933-.798-82.853-1.426l23.666-126.883c49.867 1.256 55.547 1.884 90.587 1.884h66.413c20.827 0 38.027-1.096 51.6-3.31 13.574-2.205 24.307-5.834 32.2-10.88 7.88-5.047 13.254-11.84 16.094-20.367 2.84-8.518 4.266-19.408 4.266-32.675 0-11.987-.8-22.09-2.373-30.299-1.573-8.197-5.04-14.989-10.413-20.354-5.36-5.367-12.627-9.784-21.787-13.256-9.147-3.47-135.813-40.402-159.173-50.186-23.36-9.784-41.84-22.25-55.4-37.4-13.574-15.15-22.88-33.142-27.934-53.977-5.053-20.835-7.573-45.14-7.573-72.916v-15.15c0-30.3 4.413-57.127 13.253-80.486 8.827-23.359 23.36-43.245 43.56-59.663 20.2-16.416 46.56-28.882 79.067-37.4 32.52-8.516 72.12-12.786 118.84-12.786h36.093c18.614 0 38.814.16 60.587.48 21.787.32 46.56.788 74.333 1.416l-23.666 126.881c-49.24-1.256-91.067-1.895-125.467-1.895h-24.72c-18.947 0-34.72 1.107-47.347 3.323-12.626 2.215-22.413 5.685-29.36 10.412-6.933 4.737-11.826 11.21-14.68 19.419-2.84 8.208-4.253 18.312-4.253 30.298 0 10.732.787 19.888 2.36 27.458 1.573 7.58 4.747 13.893 9.48 18.94 4.72 5.057 11.52 9.314 20.36 12.785 8.827 3.472 144.187 42.459 166.293 52.55M1036.44 1333.123h59.186c22.414 0 51.614.64 87.6 1.896l-22.733 119.312c-10.733-.627-20.52-1.096-29.347-1.415-8.84-.32-17.693-.63-26.52-.948-8.84-.32-18.16-.48-27.946-.48h-34.56c-19.56 0-35.654 1.268-48.28 3.79-12.627 2.535-22.574 7.58-29.84 15.162-7.254 7.58-12.32 18.312-15.147 32.193-2.84 13.883-4.253 32.195-4.253 54.914v50.186c0 22.73 1.413 41.043 4.253 54.926 2.827 13.893 8.04 24.625 15.613 32.193 7.587 7.581 17.694 12.627 30.32 15.15 12.627 2.534 28.4 3.79 47.334 3.79h72.44c21.146 0 44.666-.628 70.56-1.895l-22.734 118.366a7347.152 7347.152 0 0 1-70.546 1.426c-21.787.308-39.627.468-53.507.468-46.707 0-85.707-4.097-116.947-12.308-31.24-8.208-56.493-21.153-75.746-38.826-19.267-17.672-33-40.723-41.187-69.126-8.213-28.404-12.306-63.121-12.306-104.164v-50.186c0-40.39 4.253-74.8 12.773-103.204 8.52-28.404 22.573-51.614 42.133-69.607 19.574-17.992 44.827-31.087 75.76-39.295 30.933-8.208 68.813-12.318 113.627-12.318M1548.173 1551.861c0-24.613-1.267-44.329-3.787-59.17-2.546-14.842-7.266-26.202-14.213-34.09-6.933-7.889-16.253-13.254-27.933-16.097-11.68-2.843-26.667-4.27-44.974-4.27-18.32 0-33.306 1.427-44.986 4.27-11.68 2.843-20.987 8.208-27.934 16.097-6.946 7.888-11.84 19.248-14.666 34.09-2.854 14.841-4.267 34.557-4.267 59.17v60.61c0 24.625 1.413 44.513 4.267 59.662 2.826 15.151 7.72 26.668 14.666 34.558 6.947 7.9 16.254 13.265 27.934 16.097 11.68 2.843 26.666 4.259 44.986 4.259 18.307 0 33.294-1.416 44.974-4.259 11.68-2.832 21-8.197 27.933-16.097 6.947-7.89 11.667-19.407 14.213-34.558 2.52-15.149 3.787-35.037 3.787-59.662zm-90.907-231.992c44.174 0 81.734 3.79 112.68 11.37 30.934 7.581 56.027 20.516 75.294 38.828 19.24 18.312 33.293 42.606 42.133 72.905 8.84 30.299 13.253 68.179 13.253 113.628v52.08c0 44.823-4.413 82.393-13.253 112.692-8.84 30.3-22.893 54.605-42.133 72.916-19.267 18.313-44.36 31.408-75.294 39.296-30.946 7.877-68.506 11.828-112.68 11.828-44.2 0-81.76-3.95-112.68-11.828-30.946-7.888-56.2-20.983-75.76-39.296-19.573-18.31-33.773-42.616-42.613-72.916-8.827-30.299-13.253-67.87-13.253-112.692v-52.08c0-45.45 4.426-83.33 13.253-113.628 8.84-30.299 23.04-54.593 42.613-72.905 19.56-18.312 44.814-31.247 75.76-38.828 30.92-7.58 68.48-11.37 112.68-11.37M1898.68 1830.263h-150.56V1518.72c0-35.345 4.413-65.005 13.253-89.003 8.84-23.985 22.253-43.245 40.253-57.766 17.987-14.523 40.4-24.775 67.227-30.779 26.827-5.995 57.92-8.996 93.28-8.996h53.493c17.347 0 37.4.639 60.134 1.895l-22.734 122.156c-5.68-.628-16.093-1.096-31.253-1.416-15.16-.32-29.987-.48-44.493-.48-17.054 0-30.787 1.588-41.2 4.738-10.414 3.163-18.467 7.9-24.147 14.214-5.693 6.313-9.32 14.681-10.893 25.093-1.574 10.41-2.36 22.559-2.36 36.441v295.446M2316.813 1430.665c-17.054 0-30.787 1.427-41.187 4.26-10.426 2.84-18.64 7.887-24.626 15.148-6 7.26-10.094 17.204-12.307 29.831-2.227 12.627-3.32 29.044-3.32 49.239h163.813c0-20.195-1.107-36.612-3.307-49.239-2.213-12.627-6.466-22.57-12.786-29.83-6.307-7.262-14.68-12.309-25.094-15.15-10.413-2.832-24.146-4.259-41.186-4.259zm-81.44 202.642c.627 16.417 2.373 29.67 5.213 39.762 2.827 10.104 7.88 18.312 15.147 24.626s16.88 10.572 28.88 12.786c11.986 2.215 27.133 3.311 45.453 3.311h83.8c29.987 0 63.613-.308 100.853-.948l-21.773 117.419c-31.587 1.254-60.933 1.894-88.08 1.894h-89c-44.826 0-82.08-4.566-111.746-13.722-29.667-9.155-53.334-23.038-71.014-41.67-17.666-18.62-30.133-41.978-37.4-70.074-7.253-28.084-10.893-61.078-10.893-98.958v-52.081c0-39.763 3.947-74.321 11.827-103.684 7.893-29.352 21.146-53.817 39.773-73.385 18.627-19.568 42.933-34.248 72.92-44.032 29.987-9.784 67.08-14.682 111.266-14.682 79.534 0 136.36 16.576 170.454 49.718 34.08 33.142 51.133 79.378 51.133 138.721v19.887c0 20.836-1.267 37.88-3.8 51.134-2.533 13.267-7.107 23.998-13.733 32.195-6.627 8.208-15.307 13.893-26.04 17.044-10.734 3.164-23.987 4.739-39.76 4.739h-223.48M-1187.4 1622.485c0 13.883.787 26.03 2.36 36.442 1.574 10.413 5.214 18.78 10.894 25.093 5.693 6.315 13.733 11.05 24.146 14.213 10.414 3.152 24.147 5.504 41.2 5.504 14.507 0 160.014 1.798 165.694 1.17l-21.774 123.46c-22.72 1.256-88.213 1.896-105.573 1.896h-53.493c-35.36 0-66.44-3.003-93.267-8.996-26.84-6.006-49.24-16.258-67.24-30.779-17.987-14.523-31.413-33.781-40.253-57.767-8.84-23.997-13.254-53.657-13.254-89.002v-489.56h150.56v468.326"/>
</svg>